<svg width="41" height="37" viewBox="0 0 41 37" fill="none" xmlns="http://www.w3.org/2000/svg">
    <path d="M38.3087 5.60374C38.8912 5.8533 39.7707 6.66139 40.0798 7.26746C40.4245 7.92106 40.4363 9.21638 40.0916 9.85809C39.7588 10.4879 30.25 19.9948 29.6438 20.3038C29.311 20.4821 28.9425 20.5534 28.3958 20.5534C27.3973 20.5534 26.8149 20.2563 25.7808 19.2462C24.3545 17.8201 23.0352 16.9645 21.3355 16.3703C19.9448 15.8831 18.8037 15.7286 17.0803 15.7999C14.0612 15.9187 11.8385 16.8932 9.30678 19.2462C8.23703 20.2206 7.77348 20.4345 6.73939 20.4345C5.01591 20.4108 3.50639 18.6876 3.70845 16.9526C3.81542 16.0851 4.13635 15.5741 5.30118 14.4571C8.73625 11.1296 12.8607 9.46593 17.6746 9.46593C21.5019 9.46593 24.8537 10.6068 27.4211 12.7815L28.0511 13.3162L31.7595 9.60854C34.0179 7.36253 35.6581 5.81765 35.9434 5.67505C36.5258 5.37795 37.6907 5.35419 38.3087 5.60374Z"
          fill="#F66D49"/>
    <path d="M19.5169 18.6876C24.0455 19.7096 26.9576 24.1779 26.0899 28.7412C25.8409 30.0506 23.7037 32.6812 22.685 32.9953C22.0367 33.1952 20.7628 33.3442 19.8757 32.9953C19.0344 32.6645 18.5324 32.25 18.3025 31.4081C18.0589 30.5154 18.3639 29.659 18.9627 29.1325C20.6386 27.6589 19.7903 24.7958 17.5795 24.7958C17.2467 24.7958 16.8069 24.879 16.5929 24.986C16.379 25.0929 13.6452 27.7311 10.5073 30.8565C5.03968 36.2992 4.77819 36.5488 4.16012 36.727C3.35187 36.9647 3.04283 36.9647 2.24646 36.727C1.3669 36.4656 0.439784 35.5387 0.178291 34.6593C-0.0594303 33.8631 -0.0594303 33.5541 0.178291 32.746C0.356582 32.128 0.594303 31.8785 6.08566 26.3645C9.23546 23.2034 12.1475 20.3751 12.5398 20.0899C14.501 18.6876 17.1397 18.1529 19.5169 18.6876Z"
          fill="#F66D49"/>
    <ellipse cx="26.645" cy="4.34041" rx="4.34035" ry="4.34041" fill="#F66D49"/>
</svg>
